HIERARCHY
ROOT Hips
{
  OFFSET 5.84602e-005 68.8428 3.50346
  CHANNELS 6 Xposition Yposition Zposition Zrotation Xrotation Yrotation
  JOINT Spine
  {
    OFFSET 0 8.597 -4.6522
    CHANNELS 3 Zrotation Xrotation Yrotation
    JOINT Spine1
    {
      OFFSET 0 7.8454 0.4098
      CHANNELS 3 Zrotation Xrotation Yrotation
      JOINT Spine2
      {
        OFFSET 0 9.7078 -2.1609
        CHANNELS 3 Zrotation Xrotation Yrotation
        JOINT Neck
        {
          OFFSET 0 21.8761 -0.4549
          CHANNELS 3 Zrotation Xrotation Yrotation
          JOINT Head
          {
            OFFSET 0 12.3537 3.3602
            CHANNELS 3 Zrotation Xrotation Yrotation
            End Site
            {
              OFFSET 0.0001 18.9506 0.5657
            }
          }
        }
        JOINT LeftShoulder
        {
          OFFSET 2.2086 21.1115 7.2329
          CHANNELS 3 Zrotation Xrotation Yrotation
          JOINT LeftArm
          {
            OFFSET 13.1193 3.0282 -4.8998
            CHANNELS 3 Zrotation Xrotation Yrotation
            JOINT LeftForeArm
            {
              OFFSET 27.4081 -0.0973053 -0.2375
              CHANNELS 3 Zrotation Xrotation Yrotation
              JOINT LeftHand
              {
                OFFSET 22.8641 0.0662994 -0.1369
                CHANNELS 3 Zrotation Xrotation Yrotation
                JOINT LeftHandIndex1
                {
                  OFFSET 8.8614 0.775009 2.4612
                  CHANNELS 3 Zrotation Xrotation Yrotation
                  JOINT LeftHandIndex2
                  {
                    OFFSET 3.3146 -0.808304 0.5841
                    CHANNELS 3 Zrotation Xrotation Yrotation
                    JOINT LeftHandIndex3
                    {
                      OFFSET 2.2628 -0.552002 0.3989
                      CHANNELS 3 Zrotation Xrotation Yrotation
                      End Site
                      {
                        OFFSET 1.6102 -0.4807 0.2612
                      }
                    }
                  }
                }
                JOINT LeftHandMiddle1
                {
                  OFFSET 8.9937 0.895004 0.2143
                  CHANNELS 3 Zrotation Xrotation Yrotation
                  JOINT LeftHandMiddle2
                  {
                    OFFSET 4.0984 0.0113983 -0.0242
                    CHANNELS 3 Zrotation Xrotation Yrotation
                    JOINT LeftHandMiddle3
                    {
                      OFFSET 2.2716 0.00689697 -0.0138001
                      CHANNELS 3 Zrotation Xrotation Yrotation
                      End Site
                      {
                        OFFSET 2.0404 -0.1441 0.0027
                      }
                    }
                  }
                }
                JOINT LeftHandRing1
                {
                  OFFSET 8.5234 0.597198 -2.0164
                  CHANNELS 3 Zrotation Xrotation Yrotation
                  JOINT LeftHandRing2
                  {
                    OFFSET 3.7188 -0.188293 -0.2328
                    CHANNELS 3 Zrotation Xrotation Yrotation
                    JOINT LeftHandRing3
                    {
                      OFFSET 2.1191 -0.106598 -0.1332
                      CHANNELS 3 Zrotation Xrotation Yrotation
                      End Site
                      {
                        OFFSET 1.8737 -0.2304 -0.0886
                      }
                    }
                  }
                }
                JOINT LeftHandPinky1
                {
                  OFFSET 7.9094 -0.601089 -3.4825
                  CHANNELS 3 Zrotation Xrotation Yrotation
                  JOINT LeftHandPinky2
                  {
                    OFFSET 2.2874 -0.477005 -0.6314
                    CHANNELS 3 Zrotation Xrotation Yrotation
                    JOINT LeftHandPinky3
                    {
                      OFFSET 1.6774 -0.349396 -0.4633
                      CHANNELS 3 Zrotation Xrotation Yrotation
                      End Site
                      {
                        OFFSET 1.4888 -0.4091 -0.3416
                      }
                    }
                  }
                }
                JOINT LeftHandThumb1
                {
                  OFFSET 1.833 -1.3875 1.3896
                  CHANNELS 3 Zrotation Xrotation Yrotation
                  JOINT LeftHandThumb2
                  {
                    OFFSET 3.4129 -1.121 2.5732
                    CHANNELS 3 Zrotation Xrotation Yrotation
                    JOINT LeftHandThumb3
                    {
                      OFFSET 2.2474 -0.804199 1.6192
                      CHANNELS 3 Zrotation Xrotation Yrotation
                      End Site
                      {
                        OFFSET 1.6527 -0.5689 1.1317
                      }
                    }
                  }
                }
              }
            }
          }
        }
        JOINT RightShoulder
        {
          OFFSET -2.2086 21.1115 7.2329
          CHANNELS 3 Zrotation Xrotation Yrotation
          JOINT RightArm
          {
            OFFSET -13.1216 3.0287 -4.9007
            CHANNELS 3 Zrotation Xrotation Yrotation
            JOINT RightForeArm
            {
              OFFSET -27.4081 -0.0973053 -0.2375
              CHANNELS 3 Zrotation Xrotation Yrotation
              JOINT RightHand
              {
                OFFSET -22.8641 0.0664063 -0.1369
                CHANNELS 3 Zrotation Xrotation Yrotation
                JOINT RightHandIndex1
                {
                  OFFSET -8.8614 0.774994 2.4612
                  CHANNELS 3 Zrotation Xrotation Yrotation
                  JOINT RightHandIndex2
                  {
                    OFFSET -3.3146 -0.808304 0.5841
                    CHANNELS 3 Zrotation Xrotation Yrotation
                    JOINT RightHandIndex3
                    {
                      OFFSET -2.2628 -0.552002 0.3989
                      CHANNELS 3 Zrotation Xrotation Yrotation
                      End Site
                      {
                        OFFSET -1.6102 -0.4807 0.2612
                      }
                    }
                  }
                }
                JOINT RightHandMiddle1
                {
                  OFFSET -8.9937 0.894989 0.2143
                  CHANNELS 3 Zrotation Xrotation Yrotation
                  JOINT RightHandMiddle2
                  {
                    OFFSET -4.0984 0.0113983 -0.0242
                    CHANNELS 3 Zrotation Xrotation Yrotation
                    JOINT RightHandMiddle3
                    {
                      OFFSET -2.2716 0.00691223 -0.0138001
                      CHANNELS 3 Zrotation Xrotation Yrotation
                      End Site
                      {
                        OFFSET -2.0404 -0.1441 0.0027
                      }
                    }
                  }
                }
                JOINT RightHandRing1
                {
                  OFFSET -8.5234 0.597198 -2.0164
                  CHANNELS 3 Zrotation Xrotation Yrotation
                  JOINT RightHandRing2
                  {
                    OFFSET -3.7188 -0.188309 -0.2328
                    CHANNELS 3 Zrotation Xrotation Yrotation
                    JOINT RightHandRing3
                    {
                      OFFSET -2.1191 -0.106598 -0.1332
                      CHANNELS 3 Zrotation Xrotation Yrotation
                      End Site
                      {
                        OFFSET -1.8737 -0.2304 -0.0886
                      }
                    }
                  }
                }
                JOINT RightHandPinky1
                {
                  OFFSET -7.9094 -0.601105 -3.4825
                  CHANNELS 3 Zrotation Xrotation Yrotation
                  JOINT RightHandPinky2
                  {
                    OFFSET -2.2874 -0.477005 -0.6314
                    CHANNELS 3 Zrotation Xrotation Yrotation
                    JOINT RightHandPinky3
                    {
                      OFFSET -1.6774 -0.349396 -0.4633
                      CHANNELS 3 Zrotation Xrotation Yrotation
                      End Site
                      {
                        OFFSET -1.4888 -0.4091 -0.3416
                      }
                    }
                  }
                }
                JOINT RightHandThumb1
                {
                  OFFSET -1.833 -1.38751 1.3896
                  CHANNELS 3 Zrotation Xrotation Yrotation
                  JOINT RightHandThumb2
                  {
                    OFFSET -3.41299 -1.12099 2.5732
                    CHANNELS 3 Zrotation Xrotation Yrotation
                    JOINT RightHandThumb3
                    {
                      OFFSET -2.24741 -0.804108 1.6192
                      CHANNELS 3 Zrotation Xrotation Yrotation
                      End Site
                      {
                        OFFSET -1.6527 -0.5689 1.1317
                      }
                    }
                  }
                }
              }
            }
          }
        }
      }
    }
  }
  JOINT RightUpLeg
  {
    OFFSET -9.1966 3.8861 -0.7581
    CHANNELS 3 Zrotation Xrotation Yrotation
    JOINT RightLeg
    {
      OFFSET -0.7359 -41.0265 0
      CHANNELS 3 Zrotation Xrotation Yrotation
      JOINT RightFoot
      {
        OFFSET 0 -40.2855 0
        CHANNELS 3 Zrotation Xrotation Yrotation
        JOINT RightToeBase
        {
          OFFSET 0 -5.6122 11.7359
          CHANNELS 3 Zrotation Xrotation Yrotation
          End Site
          {
            OFFSET 0 0 7.8731
          }
        }
      }
    }
  }
  JOINT LeftUpLeg
  {
    OFFSET 9.1965 3.8864 -0.7581
    CHANNELS 3 Zrotation Xrotation Yrotation
    JOINT LeftLeg
    {
      OFFSET 0.7359 -41.0268 0
      CHANNELS 3 Zrotation Xrotation Yrotation
      JOINT LeftFoot
      {
        OFFSET 0 -40.2855 0
        CHANNELS 3 Zrotation Xrotation Yrotation
        JOINT LeftToeBase
        {
          OFFSET 0 -5.6122 11.7359
          CHANNELS 3 Zrotation Xrotation Yrotation
          End Site
          {
            OFFSET 0 0 7.8731
          }
        }
      }
    }
  }
}
MOTION
Frames:	4
Frame Time:	0.0333333
5.84602e-005 68.8428 3.50346 0 0 -0 0 0 -0 0 0 -0 0 0 -0 0 0 -0 0 0 -0 0 0 -0 0 0 -0 0 0 -0 0 0 -0 0 0 -0 0 0 -0 0 0 -0 0 0 -0 -0.0146107 -8.87603e-005 -2.63497e-007 2.99804e-018 -2.42657e-020 -1.42182e-022 0 0 -0 -0.0187562 -0.001176 5.858e-005 5.06224e-018 3.88251e-019 1.21329e-020 0 0 -0 -0.012269 -0.00324817 0.000675346 -1.74678e-018 3.88251e-019 -0 0 0 -0 0 0 -0 0 0 -0 0 0 -0 0 0 -0 0 0 -0 0 0 -0 0 0 -0 0 0 -0 0 0 -0 0 0 -0 0.0149955 -9.10982e-005 2.64101e-007 -9.69331e-018 1.21329e-020 -4.7394e-023 0 0 -0 0.0189956 -0.00119102 -5.96516e-005 -5.41541e-019 0 2.42657e-020 0 0 -0 0.0122698 -0.00324857 -0.000673756 -2.00796e-019 0 -1.94126e-019 0 0 -0 0 0 -0 0 0 -0 3.39842 1.33031 -0.0637918 -5.65207e-008 0.834868 -0.000436188 -3.39935 -2.16518 -0.0642563 -8.89002e-024 -1.18485e-023 -1.48106e-024 -3.39844 1.35642 0.0640283 -3.18788e-007 0.782166 -0.000588827 3.39931 -2.13858 0.0634662 1.1399e-023 0 -0 
-0.0397791 23.8914 41.3883 -180 -79.2592 -180 0.461685 9.34288 0.0801471 0.928856 18.6861 0.0845078 0.928855 18.6861 0.0845077 3.64182e-006 13.332 -2.8898e-006 -0.00379421 6.68665 0.0344239 -6.44114 -0.10395 -32.0475 -38.6141 1.66086 2.74359 -22.2085 -49.6347 -62.1935 -37.9651 15.1098 -3.24046 -1.18596e-006 2.49246e-006 -5.89437e-007 -1.59028e-015 -2.38542e-015 -3.18055e-015 -0 -4.77083e-015 -0 -1.18596e-006 2.49246e-006 -5.89437e-007 -0.0146195 -8.63272e-005 -1.1249e-006 -3.97569e-015 0 -3.18055e-015 -1.18596e-006 2.49246e-006 -5.89437e-007 -0.0187501 -0.00117658 5.85779e-005 1.59028e-015 5.56597e-015 -3.18055e-015 -1.18596e-006 2.49246e-006 -5.89437e-007 -0.0123033 -0.00325522 0.000679324 -1.18708e-006 2.49223e-006 -5.89074e-007 -1.18596e-006 2.49246e-006 -5.89437e-007 -1.59028e-015 -2.38542e-015 -3.18055e-015 -0 -4.77083e-015 -0 6.43812 -0.107324 32.0463 38.6114 1.65977 -2.74574 22.2035 -49.6353 62.1872 37.9358 15.0841 3.24752 5.9824e-007 -1.34122e-006 -8.15938e-007 -5.9824e-007 1.34122e-006 8.15938e-007 5.9824e-007 -1.34122e-006 -8.15938e-007 5.9824e-007 -1.34122e-006 -8.15938e-007 0.0150268 -8.85344e-005 -2.20962e-007 5.982e-007 -1.34132e-006 -8.15763e-007 5.9824e-007 -1.34122e-006 -8.15938e-007 0.0189907 -0.00119114 -5.43775e-005 5.98182e-007 -1.34135e-006 -8.15722e-007 5.9824e-007 -1.34122e-006 -8.15938e-007 0.012212 -0.00322947 -0.000675119 5.98193e-007 -1.34129e-006 -8.1581e-007 5.9824e-007 -1.34122e-006 -8.15938e-007 -5.9824e-007 1.34122e-006 8.15938e-007 5.9824e-007 -1.34122e-006 -8.15938e-007 -10.9528 -71.6602 -17.9988 1.59359 39.8448 -2.38897 -8.39659 5.63246 2.45793 -3.83e-007 -8.35272e-008 1.71313e-006 26.4966 -72.6415 40.7258 2.24846 24.5764 -0.436455 7.65079 -2.43775 -7.95165 -9.93923e-016 9.54166e-015 3.18055e-015 
-0.105969 2.3935 52.9737 -180 -33.9259 -180 0.725153 13.489 0.0270707 1.50932 26.9773 -0.133191 1.50932 26.9773 -0.133191 -1.86452e-005 19.3323 1.01412e-005 0.0193846 9.59144 -0.121337 -9.50615 0.100931 -46.4745 -55.8889 2.40453 3.9848 -53.7654 -38.8244 -97.4119 -54.5947 21.7311 -4.78197 -7.74043e-008 3.58451e-007 -1.00021e-006 -1.94761e-006 -3.66758e-009 1.56087e-006 -7.74042e-008 3.58451e-007 -1.00021e-006 -7.74043e-008 3.58451e-007 -1.00021e-006 -0.0146253 -8.95513e-005 -2.08895e-007 -7.73969e-008 3.58578e-007 -1.00016e-006 -7.74043e-008 3.58451e-007 -1.00021e-006 -0.0187301 -0.00117435 5.87235e-005 6.81569e-007 6.50758e-007 -6.71862e-007 -7.74043e-008 3.58451e-007 -1.00021e-006 -0.0122634 -0.00324553 0.00067681 -7.74236e-008 3.5856e-007 -1.00017e-006 -7.74043e-008 3.58451e-007 -1.00021e-006 -1.94761e-006 -3.66758e-009 1.56087e-006 -7.74042e-008 3.58451e-007 -1.00021e-006 9.50241 0.105088 46.4648 55.8841 2.40317 -3.98848 53.7624 -38.8308 97.4078 54.6846 21.8154 4.74831 1.98785e-015 0 1.59028e-015 -3.18055e-015 3.18055e-015 -0 5.96354e-015 1.59028e-015 1.59028e-015 1.98785e-015 0 1.59028e-015 0.014975 -9.12315e-005 5.5797e-006 1.31198e-014 0 -1.59028e-015 1.98785e-015 0 1.59028e-015 0.0189889 -0.00118964 -6.0809e-005 4.37326e-015 -1.59028e-015 4.77083e-015 1.98785e-015 0 1.59028e-015 0.0122707 -0.00324946 -0.000673328 -3.97569e-016 -1.59028e-015 -0 1.98785e-015 0 1.59028e-015 -3.18055e-015 3.18055e-015 -0 5.96354e-015 1.59028e-015 1.59028e-015 -144.641 -72.9453 -150.283 2.68917 55.796 -3.89313 -10.9674 9.93128 3.66597 8.52846e-007 2.27799e-007 8.37845e-007 124.647 -64.1034 137.947 3.64307 32.2671 -0.849058 9.80799 -0.966083 -11.6557 -2.10486e-006 -4.33663e-008 -1.04356e-006 
-0.0884342 7.44991 50.6288 -180 -44 -180 0.660871 12.4506 0.0481736 1.36089 24.9009 -0.0570498 1.36089 24.9009 -0.0570503 -1.61482e-006 17.9984 1.67997e-006 0.0678598 8.71411 -0.466947 -9.15543 0.587948 -43.2826 -51.7062 2.238 3.71935 -48.4602 -43.059 -92.0675 -51.2423 19.9516 -4.19149 -4.86466e-006 -2.90774e-009 1.83252e-007 3.34351e-008 -1.70523e-007 7.49088e-007 -3.19181e-006 -7.86656e-009 9.88235e-008 -4.86466e-006 -2.90774e-009 1.83252e-007 -0.0145979 -8.82415e-005 1.38409e-006 -3.19197e-006 -7.88004e-009 9.88249e-008 -4.86466e-006 -2.90774e-009 1.83252e-007 -0.0187808 -0.00117724 5.94487e-005 -3.19201e-006 -7.89358e-009 9.88556e-008 -4.86466e-006 -2.90774e-009 1.83252e-007 -0.0122706 -0.00324648 0.000678325 -3.19194e-006 -7.89269e-009 9.89202e-008 -4.86466e-006 -2.90774e-009 1.83252e-007 3.34351e-008 -1.70523e-007 7.49088e-007 -3.19181e-006 -7.86656e-009 9.88235e-008 9.15231 0.609957 43.2572 51.6998 2.23723 -3.72394 48.4562 -43.0679 92.0587 51.6002 20.2811 4.06885 1.799e-014 0 -0 1.17531e-014 0 -5.96354e-016 1.18525e-014 0 -1.78906e-015 1.799e-014 0 -0 0.0149926 -9.12014e-005 -3.66557e-007 6.31141e-015 -3.18055e-015 -1.98785e-015 1.799e-014 0 -0 0.0189992 -0.00119118 -5.93172e-005 5.91384e-015 0 -3.97569e-016 1.799e-014 0 -0 0.0122368 -0.00323902 -0.000673854 4.47266e-015 1.59028e-015 9.93923e-016 1.799e-014 0 -0 1.17531e-014 0 -5.96354e-016 1.18525e-014 0 -1.78906e-015 -129.722 -79.1201 -135.832 2.38056 51.9542 -3.47011 -10.3753 8.94192 3.38942 2.98177e-015 0 3.18055e-015 114.689 -70.2092 128.483 3.37732 30.8678 -0.76643 9.28568 -1.39432 -10.8215 -1.68193e-006 -1.2919e-006 1.42737e-006 
